<mxfile host="app.diagrams.net" modified="2022-06-01T11:54:14.733Z" agent="5.0 (Windows NT 10.0; Win64; x64) AppleWebKit/537.36 (KHTML, like Gecko) Chrome/102.0.5005.61 Safari/537.36" etag="G5z0bShFY7YcY3l8SIXT" version="18.1.1" type="github" pages="2">
  <diagram id="wVFPlVG3b40hQODtw27G" name="Option&lt;T&gt; and Result&lt;T, E&gt;">
    <mxGraphModel dx="3479" dy="2189" grid="1" gridSize="10" guides="1" tooltips="1" connect="1" arrows="1" fold="1" page="1" pageScale="1" pageWidth="827" pageHeight="1169" math="0" shadow="0">
      <root>
        <mxCell id="0" />
        <mxCell id="1" parent="0" />
        <mxCell id="KARZq6BzEJJUkYw1hpYx-4" style="edgeStyle=orthogonalEdgeStyle;rounded=0;orthogonalLoop=1;jettySize=auto;html=1;entryX=0;entryY=0.5;entryDx=0;entryDy=0;" edge="1" parent="1" source="2KA56XZCgU1rSsyJViuN-1" target="KARZq6BzEJJUkYw1hpYx-3">
          <mxGeometry relative="1" as="geometry" />
        </mxCell>
        <mxCell id="KARZq6BzEJJUkYw1hpYx-10" style="edgeStyle=orthogonalEdgeStyle;rounded=0;orthogonalLoop=1;jettySize=auto;html=1;entryX=0;entryY=0.5;entryDx=0;entryDy=0;" edge="1" parent="1" source="2KA56XZCgU1rSsyJViuN-1" target="2KA56XZCgU1rSsyJViuN-6">
          <mxGeometry relative="1" as="geometry" />
        </mxCell>
        <mxCell id="KARZq6BzEJJUkYw1hpYx-13" style="edgeStyle=orthogonalEdgeStyle;rounded=0;orthogonalLoop=1;jettySize=auto;html=1;entryX=0;entryY=0.5;entryDx=0;entryDy=0;" edge="1" parent="1" source="2KA56XZCgU1rSsyJViuN-1" target="KARZq6BzEJJUkYw1hpYx-12">
          <mxGeometry relative="1" as="geometry" />
        </mxCell>
        <mxCell id="VNILwtbuuGtBTjnTMXv8-21" value="ok_or()" style="edgeStyle=orthogonalEdgeStyle;rounded=0;orthogonalLoop=1;jettySize=auto;html=1;entryX=0.25;entryY=0;entryDx=0;entryDy=0;fillColor=#0050ef;strokeColor=#001DBC;" edge="1" parent="1" source="2KA56XZCgU1rSsyJViuN-1" target="VNILwtbuuGtBTjnTMXv8-7">
          <mxGeometry relative="1" as="geometry">
            <Array as="points">
              <mxPoint x="-60" y="360" />
              <mxPoint x="-60" y="360" />
            </Array>
          </mxGeometry>
        </mxCell>
        <mxCell id="fBPxxS6dOhS0FlbmGzNQ-2" style="edgeStyle=orthogonalEdgeStyle;rounded=0;orthogonalLoop=1;jettySize=auto;html=1;entryX=0;entryY=0.5;entryDx=0;entryDy=0;" edge="1" parent="1" source="2KA56XZCgU1rSsyJViuN-1" target="fBPxxS6dOhS0FlbmGzNQ-1">
          <mxGeometry relative="1" as="geometry" />
        </mxCell>
        <mxCell id="fBPxxS6dOhS0FlbmGzNQ-14" style="edgeStyle=orthogonalEdgeStyle;rounded=0;orthogonalLoop=1;jettySize=auto;html=1;entryX=0;entryY=0.5;entryDx=0;entryDy=0;startArrow=none;startFill=0;strokeWidth=1;" edge="1" parent="1" source="2KA56XZCgU1rSsyJViuN-1" target="fBPxxS6dOhS0FlbmGzNQ-5">
          <mxGeometry relative="1" as="geometry">
            <Array as="points">
              <mxPoint x="110" y="230" />
              <mxPoint x="110" y="-60" />
            </Array>
          </mxGeometry>
        </mxCell>
        <mxCell id="2KA56XZCgU1rSsyJViuN-1" value="Option&amp;lt;T&amp;gt;" style="rounded=0;whiteSpace=wrap;html=1;fillColor=#1ba1e2;fontColor=#ffffff;strokeColor=#006EAF;" vertex="1" parent="1">
          <mxGeometry x="-90" y="200" width="120" height="60" as="geometry" />
        </mxCell>
        <mxCell id="2KA56XZCgU1rSsyJViuN-2" value="map()" style="whiteSpace=wrap;html=1;rounded=0;" vertex="1" parent="1">
          <mxGeometry x="380" y="330" width="120" height="60" as="geometry" />
        </mxCell>
        <mxCell id="2KA56XZCgU1rSsyJViuN-4" value="and_then()" style="rounded=0;whiteSpace=wrap;html=1;" vertex="1" parent="1">
          <mxGeometry x="380" y="210" width="120" height="60" as="geometry" />
        </mxCell>
        <mxCell id="fBPxxS6dOhS0FlbmGzNQ-10" value="conversion by" style="edgeStyle=orthogonalEdgeStyle;rounded=0;orthogonalLoop=1;jettySize=auto;html=1;strokeWidth=1;" edge="1" parent="1" source="2KA56XZCgU1rSsyJViuN-6" target="fBPxxS6dOhS0FlbmGzNQ-9">
          <mxGeometry relative="1" as="geometry" />
        </mxCell>
        <mxCell id="2KA56XZCgU1rSsyJViuN-6" value="&lt;b&gt;? &lt;/b&gt;operator" style="rounded=0;whiteSpace=wrap;html=1;" vertex="1" parent="1">
          <mxGeometry x="190" y="30" width="120" height="60" as="geometry" />
        </mxCell>
        <mxCell id="KARZq6BzEJJUkYw1hpYx-6" style="edgeStyle=orthogonalEdgeStyle;rounded=0;orthogonalLoop=1;jettySize=auto;html=1;entryX=0;entryY=0.5;entryDx=0;entryDy=0;" edge="1" parent="1" source="KARZq6BzEJJUkYw1hpYx-3" target="2KA56XZCgU1rSsyJViuN-4">
          <mxGeometry relative="1" as="geometry" />
        </mxCell>
        <mxCell id="KARZq6BzEJJUkYw1hpYx-7" style="edgeStyle=orthogonalEdgeStyle;rounded=0;orthogonalLoop=1;jettySize=auto;html=1;entryX=0;entryY=0.5;entryDx=0;entryDy=0;" edge="1" parent="1" source="KARZq6BzEJJUkYw1hpYx-3" target="2KA56XZCgU1rSsyJViuN-2">
          <mxGeometry relative="1" as="geometry" />
        </mxCell>
        <mxCell id="KARZq6BzEJJUkYw1hpYx-9" style="edgeStyle=orthogonalEdgeStyle;rounded=0;orthogonalLoop=1;jettySize=auto;html=1;entryX=0;entryY=0.5;entryDx=0;entryDy=0;" edge="1" parent="1" source="KARZq6BzEJJUkYw1hpYx-3" target="KARZq6BzEJJUkYw1hpYx-8">
          <mxGeometry relative="1" as="geometry" />
        </mxCell>
        <mxCell id="KARZq6BzEJJUkYw1hpYx-3" value="Combinator" style="rounded=1;whiteSpace=wrap;html=1;" vertex="1" parent="1">
          <mxGeometry x="190" y="330" width="120" height="60" as="geometry" />
        </mxCell>
        <mxCell id="KARZq6BzEJJUkYw1hpYx-8" value="map_or()" style="rounded=0;whiteSpace=wrap;html=1;" vertex="1" parent="1">
          <mxGeometry x="380" y="450" width="120" height="60" as="geometry" />
        </mxCell>
        <mxCell id="KARZq6BzEJJUkYw1hpYx-12" value="unwrap()" style="rounded=0;whiteSpace=wrap;html=1;" vertex="1" parent="1">
          <mxGeometry x="190" y="100" width="120" height="60" as="geometry" />
        </mxCell>
        <mxCell id="VNILwtbuuGtBTjnTMXv8-19" style="edgeStyle=orthogonalEdgeStyle;rounded=0;orthogonalLoop=1;jettySize=auto;html=1;entryX=0;entryY=0.5;entryDx=0;entryDy=0;" edge="1" parent="1" source="VNILwtbuuGtBTjnTMXv8-7" target="KARZq6BzEJJUkYw1hpYx-3">
          <mxGeometry relative="1" as="geometry" />
        </mxCell>
        <mxCell id="VNILwtbuuGtBTjnTMXv8-20" style="edgeStyle=orthogonalEdgeStyle;rounded=0;orthogonalLoop=1;jettySize=auto;html=1;entryX=0;entryY=0.5;entryDx=0;entryDy=0;exitX=0.5;exitY=1;exitDx=0;exitDy=0;" edge="1" parent="1" source="VNILwtbuuGtBTjnTMXv8-7" target="VNILwtbuuGtBTjnTMXv8-13">
          <mxGeometry relative="1" as="geometry" />
        </mxCell>
        <mxCell id="VNILwtbuuGtBTjnTMXv8-22" value="ok()" style="edgeStyle=orthogonalEdgeStyle;rounded=0;orthogonalLoop=1;jettySize=auto;html=1;entryX=0.75;entryY=1;entryDx=0;entryDy=0;exitX=0.75;exitY=0;exitDx=0;exitDy=0;fillColor=#0050ef;strokeColor=#001DBC;" edge="1" parent="1" source="VNILwtbuuGtBTjnTMXv8-7" target="2KA56XZCgU1rSsyJViuN-1">
          <mxGeometry relative="1" as="geometry" />
        </mxCell>
        <mxCell id="fBPxxS6dOhS0FlbmGzNQ-8" style="edgeStyle=orthogonalEdgeStyle;rounded=0;orthogonalLoop=1;jettySize=auto;html=1;entryX=0;entryY=0.5;entryDx=0;entryDy=0;strokeWidth=1;" edge="1" parent="1" source="VNILwtbuuGtBTjnTMXv8-7" target="fBPxxS6dOhS0FlbmGzNQ-7">
          <mxGeometry relative="1" as="geometry" />
        </mxCell>
        <mxCell id="VNILwtbuuGtBTjnTMXv8-7" value="Result&amp;lt;T, E&amp;gt;" style="rounded=0;whiteSpace=wrap;html=1;fillColor=#d80073;fontColor=#ffffff;strokeColor=#A50040;" vertex="1" parent="1">
          <mxGeometry x="-90" y="520" width="120" height="60" as="geometry" />
        </mxCell>
        <mxCell id="VNILwtbuuGtBTjnTMXv8-12" value="" style="edgeStyle=orthogonalEdgeStyle;rounded=0;orthogonalLoop=1;jettySize=auto;html=1;" edge="1" parent="1" source="VNILwtbuuGtBTjnTMXv8-13" target="VNILwtbuuGtBTjnTMXv8-14">
          <mxGeometry relative="1" as="geometry" />
        </mxCell>
        <mxCell id="VNILwtbuuGtBTjnTMXv8-13" value="aliasing" style="rounded=0;whiteSpace=wrap;html=1;" vertex="1" parent="1">
          <mxGeometry x="10" y="630" width="120" height="60" as="geometry" />
        </mxCell>
        <mxCell id="VNILwtbuuGtBTjnTMXv8-14" value="&lt;div&gt;type &lt;b&gt;Result&lt;/b&gt;&amp;lt;T&amp;gt; = std::result::&lt;b&gt;Result&lt;/b&gt;&amp;lt;T, DoubleError&amp;gt;;&lt;/div&gt;&lt;div&gt;&lt;br&gt;&lt;/div&gt;" style="rounded=0;whiteSpace=wrap;html=1;" vertex="1" parent="1">
          <mxGeometry x="190" y="645" width="330" height="30" as="geometry" />
        </mxCell>
        <mxCell id="fBPxxS6dOhS0FlbmGzNQ-1" value="expect()" style="rounded=0;whiteSpace=wrap;html=1;" vertex="1" parent="1">
          <mxGeometry x="190" y="170" width="120" height="60" as="geometry" />
        </mxCell>
        <mxCell id="fBPxxS6dOhS0FlbmGzNQ-5" value="&lt;b&gt;Into::into()&lt;/b&gt;" style="rounded=0;whiteSpace=wrap;html=1;fillColor=#ffe6cc;strokeColor=#d79b00;" vertex="1" parent="1">
          <mxGeometry x="190" y="-90" width="120" height="60" as="geometry" />
        </mxCell>
        <mxCell id="fBPxxS6dOhS0FlbmGzNQ-7" value="map_err()" style="rounded=0;whiteSpace=wrap;html=1;" vertex="1" parent="1">
          <mxGeometry x="10" y="720" width="120" height="60" as="geometry" />
        </mxCell>
        <mxCell id="fBPxxS6dOhS0FlbmGzNQ-12" value="&lt;b&gt;reciprocal&lt;/b&gt;" style="edgeStyle=orthogonalEdgeStyle;rounded=0;orthogonalLoop=1;jettySize=auto;html=1;entryX=1;entryY=0.5;entryDx=0;entryDy=0;strokeWidth=1;exitX=1;exitY=0.5;exitDx=0;exitDy=0;startArrow=block;startFill=1;dashed=1;" edge="1" parent="1" source="fBPxxS6dOhS0FlbmGzNQ-9" target="fBPxxS6dOhS0FlbmGzNQ-5">
          <mxGeometry relative="1" as="geometry" />
        </mxCell>
        <mxCell id="fBPxxS6dOhS0FlbmGzNQ-9" value="&lt;b&gt;From::from()&lt;/b&gt;" style="rounded=0;whiteSpace=wrap;html=1;fillColor=#ffe6cc;strokeColor=#d79b00;" vertex="1" parent="1">
          <mxGeometry x="450" y="30" width="120" height="60" as="geometry" />
        </mxCell>
      </root>
    </mxGraphModel>
  </diagram>
  <diagram id="OSh_Hhkz2wGe0IQhnorE" name="Type Conversion">
    <mxGraphModel dx="2254" dy="867" grid="1" gridSize="10" guides="1" tooltips="1" connect="1" arrows="1" fold="1" page="1" pageScale="1" pageWidth="827" pageHeight="1169" math="0" shadow="0">
      <root>
        <mxCell id="0" />
        <mxCell id="1" parent="0" />
        <mxCell id="PKvaohb6Cc-7Cv7HakOT-3" value="" style="edgeStyle=orthogonalEdgeStyle;rounded=0;orthogonalLoop=1;jettySize=auto;html=1;startArrow=none;startFill=0;strokeWidth=1;entryX=0;entryY=0.5;entryDx=0;entryDy=0;" edge="1" parent="1" source="PKvaohb6Cc-7Cv7HakOT-1" target="PKvaohb6Cc-7Cv7HakOT-2">
          <mxGeometry relative="1" as="geometry" />
        </mxCell>
        <mxCell id="PKvaohb6Cc-7Cv7HakOT-1" value="Type Conversion" style="rounded=0;whiteSpace=wrap;html=1;" vertex="1" parent="1">
          <mxGeometry x="50" y="320" width="120" height="60" as="geometry" />
        </mxCell>
        <mxCell id="PKvaohb6Cc-7Cv7HakOT-8" style="edgeStyle=orthogonalEdgeStyle;rounded=0;orthogonalLoop=1;jettySize=auto;html=1;entryX=0;entryY=0.5;entryDx=0;entryDy=0;startArrow=none;startFill=0;strokeWidth=1;" edge="1" parent="1" source="PKvaohb6Cc-7Cv7HakOT-2" target="PKvaohb6Cc-7Cv7HakOT-7">
          <mxGeometry relative="1" as="geometry" />
        </mxCell>
        <mxCell id="PKvaohb6Cc-7Cv7HakOT-9" style="edgeStyle=orthogonalEdgeStyle;rounded=0;orthogonalLoop=1;jettySize=auto;html=1;entryX=0;entryY=0.5;entryDx=0;entryDy=0;startArrow=none;startFill=0;strokeWidth=1;" edge="1" parent="1" source="PKvaohb6Cc-7Cv7HakOT-2" target="PKvaohb6Cc-7Cv7HakOT-6">
          <mxGeometry relative="1" as="geometry" />
        </mxCell>
        <mxCell id="PKvaohb6Cc-7Cv7HakOT-2" value="Integral" style="rounded=0;whiteSpace=wrap;html=1;" vertex="1" parent="1">
          <mxGeometry x="220" y="190" width="120" height="60" as="geometry" />
        </mxCell>
        <mxCell id="PKvaohb6Cc-7Cv7HakOT-15" value="" style="edgeStyle=orthogonalEdgeStyle;rounded=0;orthogonalLoop=1;jettySize=auto;html=1;startArrow=none;startFill=0;strokeWidth=1;" edge="1" parent="1" source="PKvaohb6Cc-7Cv7HakOT-6" target="PKvaohb6Cc-7Cv7HakOT-14">
          <mxGeometry relative="1" as="geometry" />
        </mxCell>
        <mxCell id="PKvaohb6Cc-7Cv7HakOT-19" style="edgeStyle=orthogonalEdgeStyle;rounded=0;orthogonalLoop=1;jettySize=auto;html=1;entryX=0;entryY=0.5;entryDx=0;entryDy=0;startArrow=none;startFill=0;strokeWidth=1;" edge="1" parent="1" source="PKvaohb6Cc-7Cv7HakOT-6" target="PKvaohb6Cc-7Cv7HakOT-18">
          <mxGeometry relative="1" as="geometry" />
        </mxCell>
        <mxCell id="PKvaohb6Cc-7Cv7HakOT-6" value="explict conversion" style="shape=process;whiteSpace=wrap;html=1;backgroundOutline=1;" vertex="1" parent="1">
          <mxGeometry x="380" y="260" width="120" height="60" as="geometry" />
        </mxCell>
        <mxCell id="PKvaohb6Cc-7Cv7HakOT-11" value="C language" style="edgeStyle=orthogonalEdgeStyle;rounded=0;orthogonalLoop=1;jettySize=auto;html=1;startArrow=none;startFill=0;strokeWidth=1;" edge="1" parent="1" source="PKvaohb6Cc-7Cv7HakOT-7" target="PKvaohb6Cc-7Cv7HakOT-10">
          <mxGeometry relative="1" as="geometry" />
        </mxCell>
        <mxCell id="PKvaohb6Cc-7Cv7HakOT-13" value="Rust language" style="edgeStyle=orthogonalEdgeStyle;rounded=0;orthogonalLoop=1;jettySize=auto;html=1;entryX=0;entryY=0.5;entryDx=0;entryDy=0;startArrow=none;startFill=0;strokeWidth=1;" edge="1" parent="1" source="PKvaohb6Cc-7Cv7HakOT-7" target="PKvaohb6Cc-7Cv7HakOT-12">
          <mxGeometry relative="1" as="geometry" />
        </mxCell>
        <mxCell id="PKvaohb6Cc-7Cv7HakOT-7" value="implicit conversion" style="shape=process;whiteSpace=wrap;html=1;backgroundOutline=1;" vertex="1" parent="1">
          <mxGeometry x="380" y="120" width="120" height="60" as="geometry" />
        </mxCell>
        <mxCell id="PKvaohb6Cc-7Cv7HakOT-10" value="undefined behavior" style="whiteSpace=wrap;html=1;" vertex="1" parent="1">
          <mxGeometry x="590" y="60" width="120" height="60" as="geometry" />
        </mxCell>
        <mxCell id="PKvaohb6Cc-7Cv7HakOT-12" value="defined behavior" style="whiteSpace=wrap;html=1;" vertex="1" parent="1">
          <mxGeometry x="590" y="160" width="120" height="60" as="geometry" />
        </mxCell>
        <mxCell id="PKvaohb6Cc-7Cv7HakOT-14" value="&quot;&lt;b&gt;as&lt;/b&gt;&quot; for saturating cast (1.45+)" style="whiteSpace=wrap;html=1;" vertex="1" parent="1">
          <mxGeometry x="580" y="230" width="120" height="60" as="geometry" />
        </mxCell>
        <mxCell id="PKvaohb6Cc-7Cv7HakOT-18" value="&lt;b&gt;&quot;to_xx_unchecked&quot;&amp;nbsp;&lt;/b&gt;" style="whiteSpace=wrap;html=1;" vertex="1" parent="1">
          <mxGeometry x="580" y="300" width="120" height="60" as="geometry" />
        </mxCell>
        <mxCell id="PKvaohb6Cc-7Cv7HakOT-22" value="" style="edgeStyle=orthogonalEdgeStyle;rounded=0;orthogonalLoop=1;jettySize=auto;html=1;startArrow=none;startFill=0;strokeWidth=1;" edge="1" parent="1" source="PKvaohb6Cc-7Cv7HakOT-20" target="PKvaohb6Cc-7Cv7HakOT-21">
          <mxGeometry relative="1" as="geometry" />
        </mxCell>
        <mxCell id="PKvaohb6Cc-7Cv7HakOT-20" value="Custom Type" style="rounded=0;whiteSpace=wrap;html=1;" vertex="1" parent="1">
          <mxGeometry x="220" y="410" width="120" height="60" as="geometry" />
        </mxCell>
        <mxCell id="PKvaohb6Cc-7Cv7HakOT-24" value="" style="edgeStyle=orthogonalEdgeStyle;rounded=0;orthogonalLoop=1;jettySize=auto;html=1;startArrow=none;startFill=0;strokeWidth=1;" edge="1" parent="1" source="PKvaohb6Cc-7Cv7HakOT-21" target="PKvaohb6Cc-7Cv7HakOT-23">
          <mxGeometry relative="1" as="geometry" />
        </mxCell>
        <mxCell id="PKvaohb6Cc-7Cv7HakOT-29" style="edgeStyle=orthogonalEdgeStyle;rounded=0;orthogonalLoop=1;jettySize=auto;html=1;entryX=0;entryY=0.5;entryDx=0;entryDy=0;startArrow=none;startFill=0;strokeWidth=1;" edge="1" parent="1" source="PKvaohb6Cc-7Cv7HakOT-21" target="PKvaohb6Cc-7Cv7HakOT-27">
          <mxGeometry relative="1" as="geometry" />
        </mxCell>
        <mxCell id="PKvaohb6Cc-7Cv7HakOT-32" style="edgeStyle=orthogonalEdgeStyle;rounded=0;orthogonalLoop=1;jettySize=auto;html=1;entryX=0;entryY=0.5;entryDx=0;entryDy=0;startArrow=none;startFill=0;strokeWidth=1;" edge="1" parent="1" source="PKvaohb6Cc-7Cv7HakOT-21" target="PKvaohb6Cc-7Cv7HakOT-25">
          <mxGeometry relative="1" as="geometry" />
        </mxCell>
        <mxCell id="PKvaohb6Cc-7Cv7HakOT-33" style="edgeStyle=orthogonalEdgeStyle;rounded=0;orthogonalLoop=1;jettySize=auto;html=1;entryX=0;entryY=0.5;entryDx=0;entryDy=0;startArrow=none;startFill=0;strokeWidth=1;" edge="1" parent="1" source="PKvaohb6Cc-7Cv7HakOT-21" target="PKvaohb6Cc-7Cv7HakOT-31">
          <mxGeometry relative="1" as="geometry" />
        </mxCell>
        <mxCell id="PKvaohb6Cc-7Cv7HakOT-21" value="Trait" style="rounded=0;whiteSpace=wrap;html=1;" vertex="1" parent="1">
          <mxGeometry x="420" y="410" width="120" height="60" as="geometry" />
        </mxCell>
        <mxCell id="PKvaohb6Cc-7Cv7HakOT-23" value="&lt;span&gt;From -&amp;gt; T&lt;/span&gt;" style="rounded=0;whiteSpace=wrap;html=1;fontStyle=0" vertex="1" parent="1">
          <mxGeometry x="620" y="380" width="120" height="60" as="geometry" />
        </mxCell>
        <mxCell id="PKvaohb6Cc-7Cv7HakOT-25" value="&lt;span&gt;Into -&amp;gt; inferred type&lt;/span&gt;" style="rounded=0;whiteSpace=wrap;html=1;fontStyle=0" vertex="1" parent="1">
          <mxGeometry x="620" y="555" width="120" height="60" as="geometry" />
        </mxCell>
        <mxCell id="PKvaohb6Cc-7Cv7HakOT-27" value="&lt;span&gt;TryFrom -&amp;gt; Result&amp;lt;T, E&amp;gt;&lt;/span&gt;" style="rounded=0;whiteSpace=wrap;html=1;fontStyle=0" vertex="1" parent="1">
          <mxGeometry x="620" y="470" width="160" height="60" as="geometry" />
        </mxCell>
        <mxCell id="PKvaohb6Cc-7Cv7HakOT-31" value="&lt;span&gt;TryInto -&amp;gt; Result&amp;lt;T, E&amp;gt;&lt;/span&gt;" style="rounded=0;whiteSpace=wrap;html=1;fontStyle=0" vertex="1" parent="1">
          <mxGeometry x="620" y="640" width="150" height="60" as="geometry" />
        </mxCell>
      </root>
    </mxGraphModel>
  </diagram>
</mxfile>
